# xmcd
#
# Track frame offsets: 
#        150
#        22498
#        38176
#        63272
#        85350
#        109843
#        133103
#        170643
#        188848
#
# Disc length: 2897 seconds
#
# Revision: 0
# Processed by: cddbd v1.5.2PL0 Copyright (c) Steve Scherf et al.
# Submitted via: ExactAudioCopy v0.99pb5
#
DISCID=810b4f09
DTITLE=Painted Saints - No Match For Greater Minds
DYEAR=2011
DGENRE=Blues
TTITLE0=Motorcycle
TTITLE1=I Am No Match For Greater Minds
TTITLE2=Whimsy Shudder Shine
TTITLE3=Contender
TTITLE4=Tornado Song
TTITLE5=The Water Street Waltz
TTITLE6=Sunlight Through Eyelids
TTITLE7=Gaslight Cataract
TTITLE8=Avenues All Lined With Trees
EXTD=
EXTT0=
EXTT1=
EXTT2=
EXTT3=
EXTT4=
EXTT5=
EXTT6=
EXTT7=
EXTT8=
PLAYORDER=
